<?xml version="1.0" standalone="no"?>
<!DOCTYPE svg PUBLIC "-//W3C//DTD SVG 20010904//EN"
 "http://www.w3.org/TR/2001/REC-SVG-20010904/DTD/svg10.dtd">
<svg version="1.0" xmlns="http://www.w3.org/2000/svg"
 width="1024.000000pt" height="1024.000000pt" viewBox="0 0 1024.000000 1024.000000"
 preserveAspectRatio="xMidYMid meet">
<metadata>
Created by potrace 1.11, written by Peter Selinger 2001-2013
</metadata>
<g transform="translate(0.000000,1024.000000) scale(0.100000,-0.100000)"
fill="#000000" stroke="none">
<path d="M161 10223 c-59 -21 -124 -87 -144 -148 -16 -45 -17 -414 -17 -4955
0 -4541 1 -4910 17 -4955 21 -63 85 -127 148 -148 45 -16 414 -17 4956 -17
4364 0 4911 2 4950 15 60 21 104 58 136 113 l28 47 0 4945 0 4945 -28 47 c-32
55 -76 92 -136 113 -39 13 -585 15 -4955 14 -4421 -1 -4915 -2 -4955 -16z
m5169 -4998 l0 -3755 -340 0 -340 0 0 3755 0 3755 340 0 340 0 0 -3755z
m-2970 275 l0 -2250 680 0 680 0 -2 -377 -3 -378 -1092 -3 -1093 -2 0 2630 0
2630 415 0 415 0 0 -2250z m5646 2196 c497 -103 784 -424 869 -971 9 -55 19
-200 22 -322 l6 -223 -396 0 -397 0 0 195 c0 221 -14 313 -60 406 -36 70 -104
131 -179 160 -74 29 -250 32 -326 4 -148 -52 -221 -162 -246 -369 -22 -183 10
-368 96 -541 97 -197 255 -379 600 -690 409 -368 619 -618 750 -890 117 -243
165 -473 165 -795 0 -368 -69 -642 -219 -870 -49 -75 -173 -203 -247 -256
-194 -139 -465 -214 -771 -214 -390 0 -670 97 -879 305 -93 92 -151 174 -204
289 -105 224 -140 426 -140 806 l0 220 389 0 389 0 5 -252 c3 -139 11 -275 17
-303 30 -128 109 -234 205 -276 70 -31 193 -44 283 -30 187 29 287 130 328
331 22 112 15 358 -15 475 -71 281 -230 496 -646 870 -203 184 -440 422 -533
537 -190 235 -312 474 -366 718 -83 375 -44 810 98 1105 163 339 453 540 858
594 103 14 456 5 544 -13z"/>
</g>
</svg>
