<?xml version="1.0" standalone="no"?>
<!DOCTYPE svg PUBLIC "-//W3C//DTD SVG 20010904//EN"
 "http://www.w3.org/TR/2001/REC-SVG-20010904/DTD/svg10.dtd">
<svg version="1.0" xmlns="http://www.w3.org/2000/svg"
 width="1024.000000pt" height="1024.000000pt" viewBox="0 0 1024.000000 1024.000000"
 preserveAspectRatio="xMidYMid meet">
<metadata>
Created by potrace 1.11, written by Peter Selinger 2001-2013
</metadata>
<g transform="translate(0.000000,1024.000000) scale(0.100000,-0.100000)"
fill="#000000" stroke="none">
<path d="M2845 9468 c-161 -84 -439 -261 -557 -355 -37 -29 -70 -53 -73 -53
-4 0 -12 -6 -19 -13 -8 -7 -37 -33 -66 -58 -29 -24 -73 -62 -99 -84 -61 -52
-334 -328 -392 -396 -377 -441 -650 -905 -859 -1464 -28 -76 -53 -145 -55
-154 -2 -9 -18 -61 -36 -116 -54 -173 -109 -403 -144 -610 -41 -241 -45 -276
-63 -500 -14 -180 -5 -711 14 -808 2 -12 6 -46 9 -77 3 -30 7 -68 9 -85 6 -47
47 -269 51 -275 2 -3 6 -26 10 -50 24 -174 154 -572 275 -846 92 -207 258
-496 415 -722 49 -71 148 -207 154 -212 3 -3 17 -21 30 -40 103 -147 449 -509
636 -665 33 -28 66 -55 73 -62 29 -27 224 -174 312 -235 274 -190 513 -320
945 -513 154 -69 462 -168 688 -221 9 -2 27 -6 40 -9 107 -26 370 -68 512 -82
106 -11 711 -10 800 0 68 8 98 12 168 21 17 3 55 8 82 11 28 4 95 16 150 27
125 24 133 26 170 35 17 4 32 7 35 8 115 23 305 80 510 152 295 105 605 252
888 424 104 64 315 203 345 230 7 5 44 33 82 61 58 44 210 165 251 203 217
195 438 417 526 530 13 16 30 37 38 45 8 8 54 65 101 125 316 404 575 875 734
1335 57 166 117 370 130 445 3 17 17 84 30 150 13 66 26 139 30 162 3 23 8 57
11 75 3 18 7 51 9 73 3 22 8 58 11 80 4 22 8 193 9 380 3 311 -6 493 -29 612
-3 16 -8 48 -11 73 -5 47 -10 74 -21 125 -4 17 -8 39 -10 50 -2 11 -5 29 -8
40 -2 11 -12 53 -21 94 -8 41 -27 118 -41 170 -14 53 -26 101 -28 106 -1 6
-10 37 -20 70 -219 757 -609 1431 -1137 1965 -269 273 -390 367 -604 475 -236
118 -568 218 -830 251 -16 2 -39 6 -50 8 -11 3 -47 8 -80 11 -33 4 -71 8 -85
11 -126 21 -612 21 -740 0 -14 -2 -50 -7 -80 -11 -30 -4 -62 -8 -70 -10 -8 -2
-45 -8 -82 -14 -70 -12 -112 -26 -138 -47 -32 -25 -159 -88 -242 -120 -87 -33
-312 -98 -377 -109 -19 -3 -37 -7 -40 -9 -3 -2 -24 -7 -46 -10 -178 -28 -214
-41 -247 -94 -16 -26 -21 -50 -20 -91 3 -126 101 -371 200 -502 122 -160 327
-277 534 -304 61 -8 282 -91 416 -156 207 -101 389 -218 557 -361 57 -49 243
-233 295 -293 202 -231 391 -562 489 -854 28 -83 75 -252 86 -312 14 -71 25
-140 30 -184 3 -27 8 -61 10 -75 4 -22 -5 -30 -78 -73 -226 -129 -475 -226
-697 -271 -14 -3 -37 -8 -51 -10 -25 -6 -26 -4 -32 52 -6 74 -35 130 -89 176
-72 62 -77 62 -653 61 l-520 -1 -62 -33 -62 -33 -83 51 c-160 98 -170 90 123
89 141 0 267 3 280 7 49 13 85 38 119 81 62 78 61 68 62 640 0 592 3 570 -83
653 -72 69 -68 69 -659 67 l-525 -1 -49 -25 c-51 -26 -101 -84 -123 -143 -15
-42 -17 -1085 -2 -1103 7 -9 -2 -29 -34 -71 -41 -53 -56 -85 -71 -153 l-5 -25
-203 -1 c-232 -1 -251 -3 -304 -37 -48 -30 -66 -50 -95 -107 l-24 -45 0 -524
c0 -555 0 -564 48 -636 23 -35 72 -71 111 -81 14 -3 26 -10 26 -15 0 -4 -21
-2 -47 6 -27 7 -84 23 -128 35 -44 12 -116 32 -160 46 -77 23 -81 26 -105 72
-163 312 -319 544 -534 792 -165 189 -383 391 -577 533 -65 48 -66 49 -69 100
-10 154 0 553 15 576 1 3 6 29 9 56 6 55 8 66 37 210 21 104 32 142 79 285 56
169 86 243 152 375 11 22 32 62 45 90 14 27 40 72 58 100 86 136 67 296 -50
404 -142 131 -328 132 -455 1 -97 -99 -285 -437 -393 -705 -58 -144 -153 -450
-164 -530 -3 -22 -10 -44 -15 -50 -7 -7 -9 -7 -6 0 3 6 9 32 13 60 10 77 72
333 121 505 128 443 320 870 552 1225 56 85 234 329 251 345 3 3 35 39 71 80
155 179 442 444 564 519 20 13 36 25 36 27 0 6 0 6 -45 -18z m4320 -273 c17
-5 53 -19 82 -32 183 -83 159 -222 -58 -322 -109 -51 -254 -80 -279 -55 -5 5
3 40 21 84 45 117 42 139 -39 243 -40 50 -44 60 -31 72 29 29 204 35 304 10z
m-1185 -181 c41 -17 70 -55 70 -92 0 -57 -97 -107 -174 -90 -117 26 -142 128
-43 177 51 25 93 26 147 5z m-4699 -2327 c-10 -9 -11 -8 -5 6 3 10 9 15 12 12
3 -3 0 -11 -7 -18z m3654 -1881 c39 -22 73 -44 76 -49 4 -5 7 -55 7 -111 0
-115 11 -167 45 -217 27 -41 103 -89 154 -98 21 -4 270 -7 553 -6 l516 1 49
29 c50 29 52 30 215 31 91 1 194 5 230 9 107 10 56 -11 -70 -30 -63 -9 -124
-18 -135 -20 -11 -1 -38 -6 -60 -9 -22 -4 -87 -14 -145 -22 -58 -8 -116 -17
-130 -19 -14 -2 -47 -7 -75 -10 -27 -2 -59 -7 -70 -9 -11 -2 -54 -7 -95 -11
-41 -3 -82 -8 -90 -10 -8 -2 -53 -7 -100 -10 -47 -4 -101 -8 -120 -10 -19 -2
-73 -6 -120 -10 -47 -3 -110 -8 -140 -10 -273 -22 -908 -22 -1075 0 -16 2 -70
7 -120 10 -49 4 -99 9 -110 11 -11 2 -45 6 -75 9 -30 3 -122 17 -205 31 -82
14 -169 30 -193 34 -23 4 -44 9 -46 11 -3 2 235 4 527 4 l532 0 47 23 c26 13
61 40 79 59 56 65 62 91 63 276 1 92 3 166 6 165 3 -2 37 -21 75 -42z m2003
-401 c-3 -3 -25 -7 -49 -10 -29 -3 -36 -2 -19 3 30 10 75 14 68 7z"/>
</g>
</svg>
